<svg width="24" height="24" xmlns="http://www.w3.org/2000/svg" fill="none">

 <g>
  <title>Layer 1</title>
  <path id="svg_1" stroke-linecap="round" stroke-width="1.5" stroke="#1C274C" d="m22,12c0,4.714 0,7.0711 -1.4645,8.5355c-1.4644,1.4645 -3.8215,1.4645 -8.5355,1.4645c-4.71405,0 -7.07107,0 -8.53553,-1.4645c-1.46447,-1.4644 -1.46447,-3.8215 -1.46447,-8.5355c0,-4.71405 0,-7.07107 1.46447,-8.53553c1.46446,-1.46447 3.82148,-1.46447 8.53553,-1.46447c4.714,0 7.0711,0 8.5355,1.46447c0.9738,0.97374 1.3001,2.34208 1.4094,4.53553"/>
  <path stroke="#000000" class="cls-1" d="m11.89866,4.56379a7.62342,7.62342 0 0 0 -2.41113,14.8568c0.38294,0.07092 0.52123,-0.1631 0.52123,-0.35457s0,-0.65952 0,-1.29421c-2.12747,0.46095 -2.56714,-1.02118 -2.56714,-1.02118a2.02109,2.02109 0 0 0 -0.86163,-1.13111c-0.69142,-0.47159 0.05319,-0.46449 0.05319,-0.46449a1.60269,1.60269 0 0 1 1.16656,0.78716c0.68079,1.16656 1.77289,0.82971 2.21965,0.63469a1.6346,1.6346 0 0 1 0.48578,-1.02118c-1.69489,-0.19147 -3.47486,-0.8439 -3.47486,-3.76562a2.93945,2.93945 0 0 1 0.78716,-2.04591a2.72316,2.72316 0 0 1 0.07446,-2.01754s0.63824,-0.20566 2.09555,0.78007a7.25466,7.25466 0 0 1 3.81526,0c1.45731,-0.98573 2.09555,-0.78007 2.09555,-0.78007a2.74443,2.74443 0 0 1 0.07446,2.01754a2.9359,2.9359 0 0 1 0.78362,2.04591c0,2.92882 -1.77289,3.5706 -3.47841,3.76207a1.81544,1.81544 0 0 1 0.51769,1.41831c0,1.01764 0,1.84026 0,2.09201s0.13828,0.43968 0.52477,0.35458a7.62342,7.62342 0 0 0 -2.42176,-14.85326" fill="none" stroke-linecap="round" stroke-linejoin="round" fill-rule="evenodd" id="svg_2"/>
 </g>
</svg>