<svg width="24.000000000000004" height="24.000000000000004" xmlns="http://www.w3.org/2000/svg" fill="none">

 <g>
  <title>Layer 1</title>
  <path id="svg_1" stroke-linecap="round" stroke-width="1.5" stroke="#1C274C" d="m22,12c0,4.714 0,7.0711 -1.4645,8.5355c-1.4644,1.4645 -3.8215,1.4645 -8.5355,1.4645c-4.71405,0 -7.07107,0 -8.53553,-1.4645c-1.46447,-1.4644 -1.46447,-3.8215 -1.46447,-8.5355c0,-4.71405 0,-7.07107 1.46447,-8.53553c1.46446,-1.46447 3.82148,-1.46447 8.53553,-1.46447c4.714,0 7.0711,0 8.5355,1.46447c0.9738,0.97374 1.3001,2.34208 1.4094,4.53553"/>
  <text transform="matrix(0.615903 0 0 0.615903 2.4934 7.48735)" stroke="null" xml:space="preserve" text-anchor="start" font-family="Noto Sans JP" font-size="24" stroke-width="0" id="svg_2" y="13.55734" x="5.79124" fill="#191942">in</text>
 </g>
</svg>